<svg width="24" height="24" viewBox="0 0 24 24" fill="none" xmlns="http://www.w3.org/2000/svg">
<path d="M21 12.0119C21 10.7897 20.7659 9.62302 20.2976 8.5119C19.8373 7.43254 19.1905 6.48016 18.3571 5.65476C17.5317 4.82143 16.5794 4.1746 15.5 3.71428C14.3889 3.24603 13.2222 3.0119 12 3.0119C11.7222 3.0119 11.4841 2.91667 11.2857 2.72619C11.0952 2.52778 11 2.28968 11 2.0119C11 1.73413 11.0952 1.5 11.2857 1.30952C11.4841 1.11111 11.7222 1.0119 12 1.0119C13.4921 1.0119 14.9206 1.30159 16.2857 1.88095C17.6032 2.43651 18.7659 3.22222 19.7738 4.23809C20.7897 5.25397 21.5754 6.41667 22.131 7.72619C22.7103 9.09127 23 10.5198 23 12.0119C23 13.504 22.7103 14.9325 22.131 16.2976C21.5754 17.6071 20.7897 18.7698 19.7738 19.7857C18.7659 20.8016 17.6032 21.5873 16.2857 22.1429C14.9206 22.7222 13.4921 23.0119 12 23.0119C10.5079 23.0119 9.07937 22.7222 7.71429 22.1429C6.40476 21.5873 5.24206 20.8016 4.22619 19.7857C3.21032 18.7698 2.4246 17.6071 1.86905 16.2976C1.28968 14.9325 1 13.504 1 12.0119C1 11.7341 1.09524 11.5 1.28571 11.3095C1.48413 11.1111 1.72222 11.0119 2 11.0119C2.27778 11.0119 2.5119 11.1111 2.70238 11.3095C2.90079 11.5 3 11.7341 3 12.0119C3 13.0754 3.17857 14.1032 3.53571 15.0952C3.90079 16.0873 4.42064 16.9881 5.09524 17.7976C5.77778 18.6071 6.57937 19.2778 7.5 19.8095C8.42064 20.3413 9.40079 20.6984 10.4405 20.881C11.4802 21.0556 12.5198 21.0556 13.5595 20.881C14.5992 20.6984 15.5794 20.3413 16.5 19.8095C17.4206 19.2778 18.2183 18.6071 18.8929 17.7976C19.5754 16.9881 20.0952 16.0873 20.4524 15.0952C20.8175 14.1032 21 13.0754 21 12.0119ZM7.58333 4.42857C7.38492 4.54762 7.1746 4.60714 6.95238 4.60714C6.73016 4.60714 6.51984 4.55159 6.32143 4.44047C6.13095 4.32936 5.98016 4.17857 5.86905 3.98809C5.75794 3.78968 5.70238 3.57936 5.70238 3.35714C5.70238 3.12698 5.75794 2.91667 5.86905 2.72619C5.98016 2.53571 6.13095 2.38492 6.32143 2.27381C6.51984 2.1627 6.73016 2.10714 6.95238 2.10714C7.1746 2.10714 7.38095 2.1627 7.57143 2.27381C7.76191 2.38492 7.9127 2.53968 8.02381 2.73809C8.14286 2.92857 8.20238 3.13492 8.20238 3.35714C8.20238 3.57936 8.14683 3.78571 8.03572 3.97619C7.9246 4.16667 7.77381 4.31746 7.58333 4.42857ZM11.0357 6.0119C11.0357 5.73413 11.131 5.5 11.3214 5.30952C11.5198 5.11111 11.7579 5.0119 12.0357 5.0119C12.3135 5.0119 12.5476 5.11111 12.7381 5.30952C12.9365 5.5 13.0357 5.73413 13.0357 6.0119V11.0119H16C16.2778 11.0119 16.5119 11.1111 16.7024 11.3095C16.9008 11.5 17 11.7341 17 12.0119C17 12.2897 16.9008 12.5278 16.7024 12.7262C16.5119 12.9167 16.2778 13.0119 16 13.0119H11.0357V6.0119ZM2.66667 8.09524C2.86508 8.20635 3.0754 8.26587 3.29762 8.27381C3.51984 8.27381 3.72619 8.21825 3.91667 8.10714C4.11508 7.98809 4.26984 7.83333 4.38095 7.64286C4.49206 7.44444 4.54762 7.23413 4.54762 7.0119C4.54762 6.78968 4.49206 6.58333 4.38095 6.39286C4.26984 6.19444 4.11508 6.03968 3.91667 5.92857C3.72619 5.81746 3.51984 5.76587 3.29762 5.77381C3.0754 5.77381 2.86905 5.82936 2.67857 5.94047C2.4881 6.04365 2.33333 6.19444 2.21429 6.39286C2.10317 6.58333 2.04762 6.78968 2.04762 7.0119C2.04762 7.23413 2.10317 7.44444 2.21429 7.64286C2.3254 7.83333 2.47619 7.98413 2.66667 8.09524Z" fill="white"/>
</svg>
