<svg width="25" height="25" viewBox="0 0 25 25" fill="none" xmlns="http://www.w3.org/2000/svg">
<path d="M12 3.0119C11 3.0119 10.0754 3.2619 9.22619 3.7619C8.39286 4.24603 7.73413 4.90476 7.25 5.73809C6.75 6.5873 6.5 7.5119 6.5 8.5119V14.3929L4.41667 18.0119H19.5833L17.5 14.3929V8.5119C17.5 7.5119 17.25 6.5873 16.75 5.73809C16.2659 4.90476 15.6071 4.24603 14.7738 3.7619C13.9246 3.2619 13 3.0119 12 3.0119ZM4.5 8.5119C4.5 7.49603 4.69841 6.52381 5.09524 5.59524C5.46825 4.69841 6 3.90476 6.69048 3.21428C7.38889 2.51587 8.18651 1.98016 9.08333 1.60714C10.0119 1.21032 10.9841 1.0119 12 1.0119C13.0159 1.0119 13.9881 1.21032 14.9167 1.60714C15.8135 1.98016 16.6071 2.51587 17.2976 3.21428C17.996 3.90476 18.5317 4.69841 18.9048 5.59524C19.3016 6.52381 19.5 7.49603 19.5 8.5119V13.8571L23.0476 20.0119H15.4643C15.5595 20.6865 15.4643 21.3373 15.1786 21.9643C14.9008 22.5833 14.4722 23.0794 13.8929 23.4524C13.3135 23.8254 12.6825 24.0119 12 24.0119C11.3175 24.0119 10.6865 23.8254 10.1071 23.4524C9.52778 23.0794 9.09524 22.5833 8.80952 21.9643C8.53175 21.3373 8.44048 20.6865 8.53571 20.0119H0.952381L4.5 13.8571V8.5119ZM10.5833 20.0119C10.4722 20.3214 10.4643 20.6349 10.5595 20.9524C10.6627 21.2619 10.8452 21.5159 11.1071 21.7143C11.369 21.9127 11.6667 22.0119 12 22.0119C12.3333 22.0119 12.631 21.9127 12.8929 21.7143C13.1548 21.5159 13.3333 21.2619 13.4286 20.9524C13.5317 20.6349 13.5278 20.3214 13.4167 20.0119H10.5833Z" fill="white"/>
</svg>
